# xmcd CD database file
#
# Track frame offsets:
#	150
#	37625
#	72275
#	118250
#	158900
#	198475
#	232175
#	268775
#	280875
#
# Disc length: 4315 seconds
#
# Revision: 0
# Processed by: cddbd v1.5.1PL0 Copyright (c) Steve Scherf et al.
# Submitted via: CDex 1.51
#
DISCID=8210d909
DTITLE=Wolfgang Haffner - Whatever It Is
DYEAR=1900
DGENRE=Jazz
TTITLE0=01 Ready Set Go
TTITLE1=02 For The Time Being
TTITLE2=03 Love Someone You Like
TTITLE3=04 La Mesha
TTITLE4=05 1. 2. 79
TTITLE5=06 Whatever It Is
TTITLE6=07 Sno`peas
TTITLE7=08 Cute
TTITLE8=09 Bolivia
EXTD=
EXTT0=
EXTT1=
EXTT2=
EXTT3=
EXTT4=
EXTT5=
EXTT6=
EXTT7=
EXTT8=
PLAYORDER=
